<?xml version="1.0" standalone="no"?>
<!DOCTYPE svg PUBLIC "-//W3C//DTD SVG 20010904//EN"
 "http://www.w3.org/TR/2001/REC-SVG-20010904/DTD/svg10.dtd">
<svg version="1.0" xmlns="http://www.w3.org/2000/svg"
 width="1435.000000pt" height="1435.000000pt" viewBox="0 0 1435.000000 1435.000000"
 preserveAspectRatio="xMidYMid meet">
<metadata>
Created by potrace 1.14, written by Peter Selinger 2001-2017
</metadata>
<g transform="translate(0.000000,1435.000000) scale(0.100000,-0.100000)"
fill="#000000" stroke="none">
<path d="M6354 8713 c-37 -54 -104 -141 -149 -193 -220 -256 -538 -676 -629
-831 -69 -119 -119 -178 -152 -183 -11 -2 -58 -61 -119 -152 -191 -284 -320
-437 -378 -448 -40 -7 -70 -38 -126 -126 -25 -38 -53 -69 -70 -76 -51 -22
-101 -76 -163 -178 -45 -73 -95 -135 -183 -226 -66 -69 -150 -161 -187 -205
-37 -44 -90 -97 -117 -118 -30 -23 -48 -44 -45 -52 3 -7 -15 -39 -41 -70 -55
-68 -57 -98 -8 -103 17 -2 45 4 62 12 20 11 43 14 74 10 45 -6 91 9 116 40 9
10 22 13 43 9 21 -4 37 0 60 17 26 19 37 21 85 15 68 -8 86 3 138 82 21 33 53
69 70 80 18 12 36 34 39 49 4 16 24 43 44 60 20 17 71 85 112 150 43 69 109
155 155 204 44 47 107 127 140 179 32 52 108 149 167 215 84 95 108 127 108
150 0 24 23 53 124 155 85 87 135 147 160 193 32 57 46 72 94 99 61 35 68 42
216 222 89 109 365 507 430 620 30 52 67 82 91 73 9 -3 23 6 36 24 l22 29 41
-26 c22 -14 81 -59 129 -100 48 -40 119 -89 156 -107 37 -19 92 -55 121 -80
29 -25 68 -50 87 -57 18 -6 33 -17 33 -25 0 -8 13 -17 30 -20 17 -4 30 -13 30
-20 0 -8 4 -14 8 -14 5 0 29 -14 54 -30 25 -17 88 -48 139 -69 162 -66 493
-223 523 -248 16 -14 69 -44 117 -69 55 -27 98 -57 116 -79 22 -27 37 -36 73
-41 28 -4 53 -16 66 -30 12 -12 39 -26 60 -29 51 -9 96 -24 229 -79 176 -73
271 -90 344 -65 17 6 31 16 31 23 0 16 -42 56 -59 56 -7 0 -10 4 -7 9 3 4 -12
14 -34 21 -22 7 -47 24 -55 37 -9 12 -24 23 -34 23 -31 0 -178 79 -203 109
-20 23 -30 27 -56 23 -19 -2 -32 0 -32 7 0 15 -88 79 -230 166 -69 42 -135 89
-148 105 -23 30 -121 90 -262 160 -47 23 -106 62 -132 86 -26 24 -57 44 -69
44 -11 0 -69 29 -128 64 -58 35 -125 69 -147 75 -43 11 -209 108 -322 187 -35
24 -69 44 -77 44 -8 0 -34 19 -57 43 -26 25 -63 49 -95 60 -29 11 -51 23 -48
28 3 4 -8 15 -25 24 -17 9 -68 43 -114 75 -80 57 -148 90 -187 90 -12 0 -42
-34 -85 -97z"/>
<path d="M11333 8547 c-69 -40 -73 -44 -83 -92 -7 -27 -14 -113 -16 -189 l-5
-139 -116 -39 c-63 -21 -147 -42 -186 -46 l-70 -7 -59 -154 c-32 -85 -57 -160
-54 -167 3 -7 24 -18 48 -25 54 -15 215 1 346 34 l90 23 6 -241 c4 -132 16
-352 27 -490 12 -137 24 -385 29 -550 9 -331 18 -386 68 -425 26 -21 34 -22
197 -17 183 5 244 16 350 66 76 35 162 106 211 172 35 48 37 56 38 123 1 91
-30 153 -86 174 l-37 14 -73 -62 c-116 -100 -198 -128 -298 -100 -64 18 -70
27 -80 125 -7 66 -6 164 6 364 16 262 16 281 -2 435 -20 168 -25 397 -11 478
5 31 15 52 27 58 10 6 106 35 212 65 117 34 226 72 278 98 97 48 97 48 99 183
1 64 -3 86 -16 103 l-18 21 -120 -20 c-142 -23 -363 -67 -375 -75 -18 -11 -32
41 -40 149 -4 62 -13 122 -19 135 -17 32 -87 61 -146 61 -41 0 -63 -8 -122
-43z"/>
<path d="M9452 8195 c-74 -83 -70 -181 19 -454 46 -141 49 -182 30 -356 -7
-67 -10 -157 -7 -205 4 -47 11 -146 17 -220 8 -103 6 -306 -9 -860 -11 -399
-17 -728 -15 -732 7 -13 92 -9 156 8 33 8 99 33 146 54 l86 39 0 508 c0 361 4
531 13 588 43 276 104 392 221 425 212 59 344 -32 396 -275 25 -115 24 -329
-4 -535 -22 -170 -50 -488 -43 -495 9 -8 110 30 213 80 61 30 127 57 146 61
19 4 37 13 40 20 3 7 -3 154 -13 326 -12 206 -17 407 -15 588 4 374 -12 447
-119 543 -60 54 -137 86 -235 98 -145 17 -173 13 -299 -42 -135 -60 -171 -93
-258 -238 -59 -99 -57 -96 -62 -90 -2 2 -16 111 -30 243 -22 189 -26 262 -21
355 8 136 1 163 -73 280 -64 101 -74 125 -81 196 -6 58 -7 61 -55 93 -66 44
-104 43 -144 -3z"/>
<path d="M6632 7988 c-7 -8 -15 -30 -18 -48 -9 -44 -61 -93 -144 -135 -66 -33
-70 -37 -70 -69 0 -19 14 -68 30 -109 36 -91 40 -147 10 -147 -51 0 -100 -35
-220 -159 l-125 -128 -65 -13 c-82 -15 -103 -26 -133 -72 -28 -40 -25 -48 33
-79 38 -21 230 -18 304 5 32 9 60 16 61 14 2 -2 -5 -23 -16 -47 -36 -82 -16
-116 64 -108 82 7 147 75 147 151 0 23 14 77 32 121 23 59 32 97 33 147 1 64
3 70 38 106 26 27 37 47 37 67 0 42 -27 150 -46 188 l-17 31 89 85 c87 83 88
84 88 132 0 58 -6 66 -59 74 -30 5 -44 3 -53 -7z"/>
<path d="M7330 7467 c-32 -14 -80 -22 -170 -28 -69 -4 -143 -14 -165 -22 -34
-12 -40 -19 -43 -45 -3 -29 1 -34 42 -54 44 -21 50 -21 131 -10 59 9 91 9 104
2 26 -13 166 -13 230 1 65 14 85 3 106 -61 11 -32 27 -57 46 -71 36 -25 160
-46 192 -32 16 7 32 4 67 -14 36 -18 51 -21 76 -14 25 7 51 1 150 -36 93 -36
136 -46 200 -50 97 -6 124 4 124 47 0 35 -13 43 -100 60 -81 15 -104 27 -161
83 -25 25 -58 49 -73 53 -15 3 -37 19 -48 35 -12 16 -29 29 -38 29 -9 0 -25 9
-35 20 -17 19 -77 42 -142 55 -37 7 -69 -6 -99 -42 l-22 -26 -46 23 c-25 13
-48 31 -51 41 -4 13 -20 20 -53 24 -64 8 -70 10 -127 32 -50 20 -50 20 -95 0z"/>
<path d="M8518 6821 c-119 -39 -170 -71 -258 -161 -193 -198 -296 -404 -336
-671 -59 -403 86 -798 338 -918 168 -80 397 -80 618 -2 153 54 279 153 324
253 33 73 50 186 42 283 -7 86 -24 161 -76 323 -38 118 -34 116 -162 110 -104
-4 -175 -35 -253 -109 -86 -81 -153 -235 -143 -331 2 -27 8 -33 35 -40 31 -8
36 -5 106 64 83 83 187 153 200 135 22 -34 49 -151 43 -188 -17 -104 -95 -200
-204 -252 -63 -30 -73 -32 -182 -32 -106 0 -119 2 -170 28 -67 35 -140 104
-169 161 -42 85 -50 202 -30 431 14 162 34 256 75 343 42 93 72 130 190 238
l95 87 74 -17 c62 -15 75 -21 84 -44 13 -31 61 -239 61 -264 0 -9 3 -19 8 -22
4 -2 52 8 107 23 l100 26 -3 40 c-7 93 -34 248 -52 300 -48 140 -150 213 -318
230 -46 4 -73 0 -144 -24z"/>
<path d="M5717 6591 c-17 -26 -48 -51 -88 -72 -128 -69 -211 -169 -212 -259
-1 -61 12 -77 73 -85 47 -7 52 -5 124 45 45 31 99 81 137 126 34 42 79 87 101
101 l39 26 -7 56 c-8 69 -13 76 -69 90 -65 16 -70 15 -98 -28z"/>
<path d="M7347 6529 c-73 -44 -74 -331 -1 -501 29 -69 35 -91 30 -128 -10 -75
-27 -665 -29 -985 -1 -165 -6 -312 -11 -327 -8 -27 -7 -28 25 -28 19 0 79 11
134 24 55 13 119 27 142 31 l42 7 2 206 c4 386 0 617 -12 752 -7 74 -13 223
-13 330 l-1 195 -40 70 c-82 146 -96 179 -98 238 -2 54 -4 58 -44 87 -47 34
-98 46 -126 29z"/>
<path d="M6400 5869 c-146 -33 -164 -46 -237 -179 -81 -147 -114 -249 -116
-355 -1 -99 21 -152 86 -212 59 -55 113 -81 281 -137 264 -89 337 -146 353
-273 7 -63 -5 -85 -63 -119 -41 -24 -52 -26 -123 -22 -92 5 -157 37 -194 93
-15 24 -30 35 -47 35 -30 1 -277 -119 -285 -138 -10 -25 24 -69 100 -128 146
-112 250 -182 290 -194 108 -33 308 2 450 79 l69 37 56 124 55 125 0 115 c0
110 -1 118 -33 182 -54 110 -142 175 -357 263 -201 83 -318 154 -339 208 -45
108 18 209 140 223 104 13 196 -42 232 -137 10 -28 22 -51 25 -51 27 -4 219
37 228 48 34 41 -47 229 -134 311 -62 58 -113 87 -194 108 -73 19 -137 17
-243 -6z"/>
<path d="M2410 5675 c-81 -27 -154 -44 -183 -45 -123 -1 -308 -111 -473 -281
-195 -203 -295 -433 -365 -839 -30 -178 -38 -549 -15 -708 41 -278 134 -465
335 -674 109 -114 191 -169 316 -212 55 -19 159 -61 230 -95 297 -137 454
-150 789 -65 194 49 394 141 549 251 107 77 257 228 334 336 69 99 168 286
206 392 73 206 76 471 7 815 -124 622 -474 996 -1050 1124 -147 32 -279 46
-427 46 -112 -1 -125 -3 -253 -45z m515 -441 c214 -42 542 -291 639 -485 33
-66 36 -79 36 -159 0 -54 10 -134 25 -210 31 -153 31 -190 -1 -342 -50 -241
-108 -396 -198 -532 -247 -371 -739 -444 -1117 -165 -85 63 -233 217 -287 299
-137 209 -183 413 -148 655 8 61 18 144 22 185 16 183 159 408 354 557 85 64
185 122 300 174 l105 48 100 -6 c55 -3 132 -11 170 -19z"/>
<path d="M11772 5550 c-227 -16 -416 -49 -721 -127 -162 -41 -340 -93 -395
-115 -190 -75 -501 -190 -1076 -395 -665 -237 -850 -306 -1200 -448 -532 -215
-1071 -448 -1528 -659 -78 -36 -224 -100 -325 -142 -100 -41 -306 -136 -457
-209 -618 -300 -1410 -625 -1933 -794 -196 -63 -982 -228 -1362 -285 -275 -41
-600 -46 -783 -12 -184 34 -393 102 -537 173 -184 92 -383 288 -548 543 -120
186 -166 283 -242 513 -87 264 -107 312 -136 327 -34 19 -101 6 -176 -32 -37
-20 -86 -41 -108 -48 -22 -7 -51 -22 -64 -34 -20 -18 -23 -28 -18 -76 6 -72
51 -204 127 -376 34 -76 66 -161 71 -188 7 -36 24 -69 63 -120 30 -39 85 -118
123 -176 268 -406 573 -643 1050 -816 176 -63 488 -152 576 -162 84 -11 319
-1 547 23 817 86 1752 285 2230 475 52 21 142 52 199 69 57 17 163 55 235 85
72 30 277 109 456 176 179 66 429 160 555 207 271 101 495 196 1340 568 1165
513 2182 936 2685 1115 618 221 1079 320 1490 320 190 0 293 -11 438 -45 252
-60 502 -205 702 -406 201 -202 334 -460 369 -713 48 -346 -89 -705 -373 -974
-194 -183 -404 -285 -680 -329 -137 -21 -388 -14 -505 16 -284 72 -514 276
-576 512 -39 146 -24 304 37 407 48 79 148 167 243 212 157 77 278 87 499 45
l139 -27 23 29 c30 36 25 72 -22 169 -64 133 -216 244 -399 290 -101 25 -267
22 -426 -8 -117 -22 -134 -28 -215 -79 -123 -76 -282 -235 -350 -351 -96 -164
-162 -420 -151 -588 3 -47 13 -115 22 -151 18 -73 114 -363 140 -424 108 -254
529 -509 1013 -612 118 -26 144 -27 367 -28 228 0 246 2 360 29 573 134 948
373 1220 776 78 115 203 376 261 540 l47 135 3 289 c4 314 -3 393 -52 576
-149 553 -547 968 -1135 1184 -317 116 -754 172 -1137 146z"/>
<path d="M5232 5429 c-86 -34 -114 -51 -168 -101 -66 -62 -130 -149 -160 -218
-22 -50 -40 -51 -144 -11 -117 45 -130 46 -285 11 -134 -30 -175 -48 -175 -77
0 -27 66 -85 140 -122 66 -33 77 -42 88 -77 16 -47 13 -196 -17 -814 -11 -228
-21 -451 -23 -495 l-3 -80 36 -3 c44 -4 176 29 282 70 l77 29 0 272 c1 734 49
1065 173 1189 87 87 313 70 415 -32 60 -60 67 -99 66 -345 -1 -201 -13 -359
-53 -710 -10 -88 -16 -163 -12 -167 11 -13 114 20 238 76 66 30 132 58 148 62
l28 7 -8 91 c-4 50 -9 334 -10 631 l-3 540 -31 81 c-66 171 -146 219 -381 229
l-115 5 -103 -41z"/>
<path d="M9679 3650 c-8 -5 -62 -12 -120 -16 -57 -4 -121 -13 -143 -20 -21 -8
-62 -14 -91 -14 l-52 0 9 -62 c6 -35 6 -114 2 -178 -5 -63 -7 -168 -5 -233 2
-95 0 -122 -13 -142 -21 -32 -20 -47 7 -103 21 -45 22 -55 16 -212 -3 -91 -11
-244 -19 -340 -16 -209 -10 -245 39 -274 28 -16 50 -19 120 -18 47 1 113 8
146 15 l60 13 -1 124 c0 69 -2 193 -5 277 -3 101 0 156 7 163 16 16 55 -19
124 -115 35 -48 78 -95 103 -111 23 -15 62 -50 86 -78 24 -28 88 -99 142 -158
121 -130 149 -144 266 -134 43 3 124 9 181 13 78 4 102 9 102 20 0 31 -33 75
-88 114 -84 62 -128 106 -297 299 -84 96 -173 195 -198 219 -41 40 -44 46 -35
72 13 39 65 82 146 123 l67 34 12 111 c7 62 10 117 8 124 -3 7 -6 53 -8 102
-3 67 -9 101 -25 131 -30 59 -131 147 -214 188 -120 59 -284 92 -329 66z
m-234 -250 c-3 -5 -10 -10 -16 -10 -5 0 -9 5 -9 10 0 6 7 10 16 10 8 0 12 -4
9 -10z m85 -14 c0 -9 -40 -13 -46 -5 -3 5 6 9 20 9 14 0 26 -2 26 -4z m-120
-26 c0 -5 -4 -10 -10 -10 -5 0 -10 5 -10 10 0 6 5 10 10 10 6 0 10 -4 10 -10z
m297 -5 c28 -8 79 -35 112 -60 60 -44 61 -46 61 -93 0 -27 -7 -69 -16 -94
l-15 -46 -62 -7 c-34 -4 -77 -13 -96 -21 -45 -19 -68 -18 -79 4 -21 40 -34
251 -19 305 9 32 36 35 114 12z m-311 -70 c-21 -16 -32 -13 -21 4 3 6 14 11
23 11 15 -1 15 -2 -2 -15z m44 -555 c0 -5 -7 -10 -16 -10 -8 0 -12 5 -9 10 3
6 10 10 16 10 5 0 9 -4 9 -10z m330 6 c0 -3 -4 -8 -10 -11 -5 -3 -10 -1 -10 4
0 6 5 11 10 11 6 0 10 -2 10 -4z m-245 -26 c4 -6 -5 -10 -20 -10 -15 0 -24 4
-20 10 3 6 12 10 20 10 8 0 17 -4 20 -10z m-120 -30 c-3 -5 -10 -10 -16 -10
-5 0 -9 5 -9 10 0 6 7 10 16 10 8 0 12 -4 9 -10z m0 -59 c6 -11 -33 -26 -43
-16 -4 3 0 10 8 15 19 12 27 12 35 1z m505 -15 c0 -3 -4 -8 -10 -11 -5 -3 -10
-1 -10 4 0 6 5 11 10 11 6 0 10 -2 10 -4z m250 -100 c0 -7 -9 -21 -20 -31 -23
-21 -24 -19 -9 23 10 30 29 35 29 8z m-735 -16 c3 -5 0 -10 -9 -10 -8 0 -21
-3 -30 -6 -9 -3 -16 -1 -16 4 0 9 15 16 42 21 4 0 10 -3 13 -9z m660 -40 c-3
-5 -11 -10 -16 -10 -6 0 -7 5 -4 10 3 6 11 10 16 10 6 0 7 -4 4 -10z m-638 -6
c-3 -3 -12 -4 -19 -1 -8 3 -5 6 6 6 11 1 17 -2 13 -5z m755 -19 c0 -5 -5 -11
-11 -13 -6 -2 -11 4 -11 13 0 9 5 15 11 13 6 -2 11 -8 11 -13z m-72 -9 c0 -3
-4 -8 -10 -11 -5 -3 -10 -1 -10 4 0 6 5 11 10 11 6 0 10 -2 10 -4z m-730 -44
c0 -9 -59 -32 -83 -32 -28 0 -19 16 16 28 40 13 67 14 67 4z m809 -28 c-14
-18 -24 -11 -15 11 3 9 11 13 16 10 8 -5 7 -11 -1 -21z m76 -5 c-10 -15 -25
-10 -19 6 4 8 10 12 15 9 5 -3 7 -10 4 -15z m-775 -28 c0 -15 -49 -19 -61 -5
-9 11 -5 14 25 14 20 0 36 -4 36 -9z m630 2 c0 -10 -32 -43 -42 -43 -5 0 -1
11 8 25 15 23 34 33 34 18z m-726 -12 c3 -4 3 -11 0 -14 -8 -8 -34 3 -34 14 0
11 27 12 34 0z m-69 -41 c3 -5 2 -10 -4 -10 -5 0 -13 5 -16 10 -3 6 -2 10 4
10 5 0 13 -4 16 -10z m135 -58 c0 -5 -11 -14 -25 -20 -20 -9 -25 -9 -25 2 0
14 14 24 38 25 6 1 12 -3 12 -7z"/>
<path d="M8979 3509 c-31 -4 -107 -24 -170 -45 -90 -29 -123 -35 -161 -31 -44
6 -49 4 -68 -24 -16 -22 -29 -29 -53 -29 -18 0 -79 -22 -137 -50 -58 -27 -114
-50 -125 -50 -50 -1 -50 -1 -50 -287 1 -234 4 -284 24 -397 23 -131 24 -194 5
-424 -4 -56 -2 -78 10 -96 30 -46 154 -58 310 -30 75 14 102 15 173 5 64 -9
116 -9 226 0 l142 13 -5 135 -5 135 -30 8 c-49 14 -294 21 -377 10 -59 -8 -86
-7 -115 3 -34 12 -39 17 -45 57 -18 114 -6 122 182 123 170 0 170 0 169 104 0
42 -5 92 -12 111 -19 56 -42 62 -204 55 l-143 -6 0 100 c0 97 1 100 28 119 64
45 252 106 391 126 60 9 103 21 120 34 25 19 26 23 25 123 -1 115 -19 220 -37
218 -7 -1 -37 -5 -68 -10z m-539 -419 c0 -5 -2 -10 -4 -10 -3 0 -8 5 -11 10
-3 6 -1 10 4 10 6 0 11 -4 11 -10z m10 -320 c0 -5 -4 -10 -10 -10 -5 0 -10 5
-10 10 0 6 5 10 10 10 6 0 10 -4 10 -10z m-80 -4 c0 -11 -19 -15 -25 -6 -3 5
1 10 9 10 9 0 16 -2 16 -4z m35 -56 c3 -5 -1 -10 -9 -10 -8 0 -18 5 -21 10 -3
6 1 10 9 10 8 0 18 -4 21 -10z m65 -15 c0 -2 -9 -9 -20 -15 -16 -9 -20 -8 -20
5 0 8 9 15 20 15 11 0 20 -2 20 -5z m-100 -35 c0 -5 -2 -10 -4 -10 -3 0 -8 5
-11 10 -3 6 -1 10 4 10 6 0 11 -4 11 -10z m20 -59 c0 -9 -24 -21 -42 -21 -6 0
-6 6 2 15 14 16 40 20 40 6z m4 -156 c-22 -16 -44 -19 -44 -6 0 11 18 19 44
20 20 1 20 1 0 -14z m6 -123 c0 -7 -63 -42 -75 -42 -16 0 -1 32 18 40 28 11
57 12 57 2z m95 -53 c9 -13 7 -15 -27 -23 -21 -5 -28 -3 -28 8 0 23 43 35 55
15z m-78 -95 c-3 -3 -12 -4 -19 -1 -8 3 -5 6 6 6 11 1 17 -2 13 -5z m53 -33
c0 -5 -6 -14 -14 -20 -11 -9 -16 -9 -21 0 -4 6 -1 15 6 20 18 11 29 11 29 0z
m98 -9 c2 -7 -2 -10 -12 -6 -9 3 -16 11 -16 16 0 13 23 5 28 -10z"/>
<path d="M7896 3154 c-73 -16 -161 -49 -297 -112 -73 -34 -168 -69 -229 -85
-13 -3 -15 -54 -16 -373 -1 -203 -6 -396 -12 -429 -5 -33 -8 -62 -6 -64 1 -1
69 -16 150 -31 135 -26 151 -27 182 -14 41 17 103 18 191 4 51 -9 74 -8 116 5
29 8 69 15 88 15 l36 0 3 103 c2 56 2 104 0 107 -2 3 -95 7 -207 10 -244 6
-247 7 -238 98 3 31 8 59 10 62 2 3 46 7 96 10 l92 5 -3 35 c-1 19 1 56 6 82
6 31 6 50 -1 57 -14 14 -127 14 -164 0 -38 -14 -53 9 -53 83 0 71 0 71 166
103 117 23 269 78 259 95 -2 4 -5 61 -6 128 l-1 122 -47 -1 c-25 0 -77 -7
-115 -15z m-141 -103 c6 -11 -17 -25 -57 -35 -41 -9 -36 17 5 31 44 14 45 14
52 4z m75 5 c0 -3 -4 -8 -10 -11 -5 -3 -10 -1 -10 4 0 6 5 11 10 11 6 0 10 -2
10 -4z m40 -76 c-20 -13 -47 -13 -55 0 -4 6 9 10 32 10 28 0 34 -3 23 -10z
m-90 -10 c0 -5 -6 -10 -14 -10 -8 0 -18 5 -21 10 -3 6 3 10 14 10 12 0 21 -4
21 -10z m-75 -30 c3 -5 1 -10 -4 -10 -6 0 -11 5 -11 10 0 6 2 10 4 10 3 0 8
-4 11 -10z m135 -26 c0 -8 -32 -33 -42 -34 -13 0 -9 28 5 33 18 8 37 8 37 1z
m-165 -64 c-3 -5 -17 -10 -31 -10 -14 0 -22 4 -19 10 3 6 17 10 31 10 14 0 22
-4 19 -10z m-110 -240 c3 -5 1 -10 -4 -10 -6 0 -11 5 -11 10 0 6 2 10 4 10 3
0 8 -4 11 -10z m-40 -40 c3 -5 2 -10 -4 -10 -5 0 -13 5 -16 10 -3 6 -2 10 4
10 5 0 13 -4 16 -10z m45 -20 c0 -5 -7 -10 -16 -10 -8 0 -12 5 -9 10 3 6 10
10 16 10 5 0 9 -4 9 -10z m-70 -70 c-19 -13 -30 -13 -30 0 0 6 10 10 23 10 18
0 19 -2 7 -10z m0 -110 c-20 -13 -33 -13 -25 0 3 6 14 10 23 10 15 0 15 -2 2
-10z m-27 -107 c-18 -9 -36 -13 -40 -9 -11 10 18 26 47 25 24 0 23 -1 -7 -16z
m97 -33 c0 -5 -11 -10 -25 -10 -14 0 -25 5 -25 10 0 6 11 10 25 10 14 0 25 -4
25 -10z m-110 -40 c0 -5 -4 -10 -10 -10 -5 0 -10 5 -10 10 0 6 5 10 10 10 6 0
10 -4 10 -10z m72 -62 c-6 -6 -15 -8 -19 -4 -4 4 -1 11 7 16 19 12 27 3 12
-12z m83 2 c3 -5 -1 -10 -9 -10 -9 0 -16 5 -16 10 0 6 4 10 9 10 6 0 13 -4 16
-10z"/>
<path d="M6820 2833 c-69 -11 -183 -48 -247 -79 -79 -38 -88 -53 -54 -95 31
-40 33 -64 20 -197 -11 -115 -11 -134 6 -201 10 -40 18 -101 19 -134 l1 -62
55 -13 c65 -15 489 -11 530 6 63 25 97 104 86 195 -14 109 -101 240 -168 254
-33 7 -33 7 -8 102 25 94 25 118 0 159 -36 58 -129 84 -240 65z m37 -168 c27
-19 68 -124 54 -138 -11 -11 -82 -26 -128 -27 l-33 0 0 71 c0 39 5 79 10 90
13 23 66 26 97 4z m-197 -245 c0 -5 -10 -10 -22 -10 -19 0 -20 2 -8 10 19 13
30 13 30 0z m292 -70 c15 -7 32 -25 38 -41 36 -85 -74 -150 -209 -123 l-31 7
0 89 0 90 88 -4 c48 -3 99 -11 114 -18z m-297 -30 c-3 -5 -13 -10 -21 -10 -8
0 -12 5 -9 10 3 6 13 10 21 10 8 0 12 -4 9 -10z m-28 -96 c-30 -16 -44 -14
-32 5 3 6 18 11 33 11 l27 -1 -28 -15z m483 -14 c0 -5 -2 -10 -4 -10 -3 0 -8
5 -11 10 -3 6 -1 10 4 10 6 0 11 -4 11 -10z m-400 -20 c0 -5 -9 -10 -20 -10
-11 0 -20 5 -20 10 0 6 9 10 20 10 11 0 20 -4 20 -10z m440 6 c0 -3 -4 -8 -10
-11 -5 -3 -10 -1 -10 4 0 6 5 11 10 11 6 0 10 -2 10 -4z m-60 -66 c-19 -13
-30 -13 -30 0 0 6 10 10 23 10 18 0 19 -2 7 -10z m-405 -20 c-3 -5 -10 -10
-16 -10 -5 0 -9 5 -9 10 0 6 7 10 16 10 8 0 12 -4 9 -10z"/>
</g>
</svg>
