<svg xmlns="http://www.w3.org/2000/svg" version="1.1" xmlns:xlink="http://www.w3.org/1999/xlink" xmlns:svgjs="http://svgjs.dev/svgjs" width="128" height="128" viewBox="0 0 128 128"><g transform="matrix(0.8046875,0,0,0.8046875,12.760752631578946,27.40298608470242)"><svg viewBox="0 0 95 68" data-background-color="#ffffff" preserveAspectRatio="xMidYMid meet" height="91" width="128" xmlns="http://www.w3.org/2000/svg" xmlns:xlink="http://www.w3.org/1999/xlink"><g id="tight-bounds" transform="matrix(1,0,0,1,-0.24049999999999727,-0.015106249999988108)"><svg viewBox="0 0 95.481 68.03021249999999" height="68.03021249999999" width="95.481"><g><svg viewBox="0 0 95.481 68.03021249999999" height="68.03021249999999" width="95.481"><g><svg viewBox="0 0 95.481 68.03021249999999" height="68.03021249999999" width="95.481"><g><svg viewBox="0 0 95.481 68.03021249999999" height="68.03021249999999" width="95.481"><g><svg viewBox="0 0 95.481 68.03021249999999" height="68.03021249999999" width="95.481"><g><svg viewBox="0 0 95.481 68.03021249999999" height="68.03021249999999" width="95.481"><g><svg xmlns="http://www.w3.org/2000/svg" xmlns:xlink="http://www.w3.org/1999/xlink" version="1.1" x="0" y="0" viewBox="0 19 100 71.25" enable-background="new 0 0 100 100" xml:space="preserve" height="68.03021249999999" width="95.481" class="icon-icon-0" data-fill-palette-color="accent" id="icon-0"><path d="M50 19C25.762 19 0 25.693 0 38.097v33.056c0 3.305 1.848 6.359 5.488 9.067l0.836 0.63 24.592-3.993v12.136l4.912 0.521C40.416 90.009 45.18 90.25 50 90.25c24.238 0 50-6.692 50-19.099V38.097C100 25.693 74.238 19 50 19zM81.074 65.397c-0.044 0.011-0.087 0.019-0.129 0.031-2.326 0.716-5.228 0.13-8.141 0.708-1.137 0.226-2.194 1.343-3.285 2.515-2.616 0.394-5.43 0.714-8.423 0.948-1.422-1.028-2.876-2.04-4.257-1.964-1.18 0.065-2.368 1.171-3.582 2.351-1.09 0.023-2.192 0.04-3.322 0.04-2.791 0-10.676-0.311-14.019-0.501V56.472c4.563 0.481 9.299 0.732 14.083 0.732 8.749 0 17.691-0.883 25.557-2.58 8.103-1.752 15.049-4.381 19.442-7.838v10.487c-0.113 0.088-0.272 0.194-0.533 0.322 0 0.299-2.568 0.663-4.072 1.748-1.737 1.255-3.042 2.01-5.763 3.105C83.522 62.896 81.375 65.048 81.074 65.397zM33.424 53.101l-2.508 2.842v2.953c-0.206 0.089-0.4 0.196-0.585 0.319L9.455 62.605l0-15.319 33.934-5.51L33.424 53.101zM25.038 63.113c-0.06 0.012-0.113 0.031-0.175 0.041-0.105 0.018-0.198 0.023-0.299 0.036L25.038 63.113zM5.001 38.097c0-5.823 17.121-13.949 44.999-13.949 27.884 0 44.999 8.125 45 13.949 0 5.832-17.115 13.953-44.999 13.953-2.916 0-5.813-0.096-8.655-0.276l15.268-17.354L7.62 42.369C6.288 41.235 5.001 39.723 5.001 38.097zM9.454 75.121v-7.3c3.205 0.396 3.572-1.107 7.294-1.712 4.024-0.653 3.777-2.176 7.801-2.829 3.36-0.546 4.146 0.846 6.367 0.138v8.224L9.454 75.121zM50 85.101c-2.916 0-11.236-0.35-14.083-0.535v-1.254-7.269V72.68c1.435 0.496 4.28 1.788 5.433 1.832 2.921 0.11 5.934 1.006 7.461 1.006 2.618 0 5.216-2.17 7.671-2.295 0.515-0.026 1.015-0.181 1.504-0.411 17.914-0.968 31.215-5.1 37.014-9.898v8.238C94.999 76.974 77.884 85.101 50 85.101z" fill="#6b8253" data-fill-palette-color="accent"></path></svg></g></svg></g></svg></g></svg></g></svg></g></svg></g><defs></defs></svg><rect width="95.481" height="68.03021249999999" fill="none" stroke="none" visibility="hidden"></rect></g></svg></g></svg>