<svg xmlns="http://www.w3.org/2000/svg" version="1.1" xmlns:xlink="http://www.w3.org/1999/xlink" xmlns:svgjs="http://svgjs.dev/svgjs" width="1000" height="1000" viewBox="0 0 1000 1000"><rect width="1000" height="1000" fill="#ffffff"></rect><g transform="matrix(0.7,0,0,0.7,149.57575757575756,390.28633814711316)"><svg viewBox="0 0 396 124" data-background-color="#ffffff" preserveAspectRatio="xMidYMid meet" height="313" width="1000" xmlns="http://www.w3.org/2000/svg" xmlns:xlink="http://www.w3.org/1999/xlink"><g id="tight-bounds" transform="matrix(1,0,0,1,0.2400000000000091,0.09262469081684799)"><svg viewBox="0 0 395.52 123.81474938284649" height="123.81474938284649" width="395.52"><g><svg viewBox="0 0 606.5461302433869 189.87499268107888" height="123.81474938284649" width="395.52"><g transform="matrix(1,0,0,1,211.02613024338683,0)"><svg viewBox="0 0 395.52 189.87499268107888" height="189.87499268107888" width="395.52"><g><svg viewBox="0 0 395.52 189.87499268107888" height="189.87499268107888" width="395.52"><g><svg viewBox="0 0 395.52 117.34615227039947" height="117.34615227039947" width="395.52"><g transform="matrix(1,0,0,1,0,0)"><svg width="395.52" viewBox="0 -33.400001525878906 146.44000244140625 43.45000076293945" height="117.34615227039947" data-palette-color="#8abe53"><path d="M5.4 0L0 0 7.95-32.75 17.3-32.75 25 0 19.5 0 17.95-6.25 6.85-6.25 5.4 0ZM7.9-10.9L16.85-10.9 13.15-28.1 12.05-28.1 7.9-10.9ZM32.9-19.15L29.05-19.15 29.05-23.75 38.05-23.75 38.15-21.35Q39.75-22.25 42.32-23.08 44.9-23.9 47.1-24.15L47.1-24.15 47.1-19.15Q45.15-18.95 42.45-18.1 39.75-17.25 38.15-16.35L38.15-16.35 38.15-4.5 45.45-4.5 45.45 0 29.05 0 29.05-4.6 32.9-4.6 32.9-19.15ZM60.7-19.05L55.15-19.05 55.15-23.65 65.84-23.65 65.84-4.6 71.4-4.6 71.4 0 54.75 0 54.75-4.6 60.7-4.6 60.7-19.05ZM60.85-28.03Q59.9-29 59.9-30.3 59.9-31.6 60.8-32.5L60.8-32.5Q61.7-33.4 63-33.4 64.3-33.4 65.2-32.52 66.09-31.65 66.09-30.3 66.09-28.95 65.2-28 64.3-27.05 63.05-27.05 61.8-27.05 60.85-28.03ZM97.79-23.9L97.79-5.75 97.94 1.15Q97.94 5.45 95.04 7.75 92.14 10.05 87.19 10.05 82.24 10.05 77.59 8.4L77.59 8.4 78.84 3.8Q83.34 5.3 86.29 5.3 89.24 5.3 91.02 4.28 92.79 3.25 92.79 1.2L92.79 1.2Q92.79 0.8 92.72-0.38 92.64-1.55 92.64-2.2L92.64-2.2Q89.44 0.05 86.44 0.05L86.44 0.05Q81.84 0.05 79.44-2.8 77.04-5.65 77.04-11.88 77.04-18.1 79.77-21.08 82.49-24.05 87.24-24.05L87.24-24.05Q88.29-24.05 89.92-23.55 91.54-23.05 92.64-22.45L92.64-22.45 92.74-23.9 97.79-23.9ZM86.79-4.7L86.79-4.7Q89.34-4.7 92.64-7.2L92.64-7.2 92.64-17.5Q89.79-19.3 87.39-19.3L87.39-19.3Q82.59-19.3 82.59-12 82.59-4.7 86.79-4.7ZM107.94-17.5L107.94-17.5 107.94 0 102.79 0 102.79-33.35 107.94-33.35 107.94-22.35Q111.99-24.15 114.29-24.15L114.29-24.15Q118.59-24.15 120.37-21.65 122.14-19.15 122.14-14.35L122.14-14.35 122.14 0 116.99 0 116.99-14.45Q116.99-16.55 116.17-17.93 115.34-19.3 113.99-19.3L113.99-19.3Q111.54-19.3 107.94-17.5ZM131.99-9.1L131.99-19.15 128.19-19.15 128.19-23.75 131.99-23.75 131.99-29.45 137.14-29.95 137.14-23.75 146.04-23.75 146.04-19.15 137.14-19.15 137.14-9.1Q137.14-6.35 137.69-5.25L137.69-5.25Q138.29-4.15 140.29-4.15 142.29-4.15 145.59-4.95L145.59-4.95 146.44-0.45Q142.64 0.55 139.94 0.55L139.94 0.55Q135.14 0.55 133.56-1.6 131.99-3.75 131.99-9.1L131.99-9.1Z" opacity="1" transform="matrix(1,0,0,1,0,0)" fill="#8abe53" class="undefined-text-0" data-fill-palette-color="primary" id="text-0"></path></svg></g></svg></g><g transform="matrix(1,0,0,1,287.24168225518235,145.0487625137863)"><svg viewBox="0 0 108.2783177448176 44.8262301672926" height="44.8262301672926" width="108.2783177448176"><g transform="matrix(1,0,0,1,0,0)"><svg width="108.2783177448176" viewBox="-0.25 -25 87.19000244140625 36.099998474121094" height="44.8262301672926" data-palette-color="#506837"><path d="M3.8-7.15Q5.55-7.15 6.43-6.2 7.3-5.25 7.3-3.65L7.3-3.65Q7.3-1.95 6.18-0.7 5.05 0.55 3.15 0.55L3.15 0.55Q1.4 0.55 0.58-0.43-0.25-1.4-0.25-2.95L-0.25-2.95Q-0.25-4.65 0.83-5.9 1.9-7.15 3.8-7.15L3.8-7.15ZM19.05-3.7Q20.3-3.7 21.55-5.1 22.8-6.5 23.85-8.53 24.9-10.55 25.67-12.88 26.45-15.2 26.85-17.1L26.85-17.1 27.55-20.55Q26.95-20.85 26.17-20.95 25.4-21.05 24.7-21.05L24.7-21.05Q22.45-21.05 20.87-19.78 19.3-18.5 18.32-16.53 17.35-14.55 16.92-12.18 16.5-9.8 16.5-7.65L16.5-7.65Q16.5-5.45 17.12-4.58 17.75-3.7 19.05-3.7L19.05-3.7ZM17.2 0.4Q15.4 0.4 14.15-0.3 12.9-1 12.1-2.18 11.3-3.35 10.92-4.83 10.55-6.3 10.55-7.85L10.55-7.85Q10.55-11.4 11.47-14.5 12.4-17.6 14.2-19.93 16-22.25 18.6-23.58 21.2-24.9 24.6-24.9L24.6-24.9Q25.45-24.9 27-24.73 28.55-24.55 30.55-23.7L30.55-23.7 33.7-23.5 31.45-11.85Q30.95-9.2 30.95-7.2L30.95-7.2Q30.95-4.75 31.57-3.43 32.2-2.1 32.75-1.3L32.75-1.3 28.25 0.5Q27.5-0.35 27.02-1.6 26.55-2.85 26.55-4.45L26.55-4.45Q26.55-5.1 26.65-6.13 26.75-7.15 26.9-8.45L26.9-8.45 26.05-6.45Q25.2-4.5 24.2-3.18 23.2-1.85 22.07-1.05 20.95-0.25 19.72 0.08 18.5 0.4 17.2 0.4L17.2 0.4ZM34.7 11.1L39.3-12.6Q39.6-14.05 39.72-15.3 39.85-16.55 39.85-17.55L39.85-17.55Q39.85-20.3 39.35-21.55 38.85-22.8 38.6-23.2L38.6-23.2 43.15-25Q43.7-24.3 44.07-23.3 44.45-22.3 44.45-20.75L44.45-20.75Q44.45-20.35 44.4-19.8 44.35-19.25 44.3-18.65 44.25-18.05 44.17-17.48 44.1-16.9 44.05-16.55L44.05-16.55 44.7-18Q45.55-20 46.55-21.33 47.55-22.65 48.67-23.45 49.8-24.25 51.02-24.58 52.25-24.9 53.55-24.9L53.55-24.9Q55.35-24.9 56.6-24.2 57.85-23.5 58.65-22.33 59.45-21.15 59.82-19.68 60.2-18.2 60.2-16.65L60.2-16.65Q60.2-13.1 59.27-10 58.35-6.9 56.55-4.58 54.75-2.25 52.12-0.93 49.5 0.4 46.15 0.4L46.15 0.4Q45.15 0.4 44.17 0.28 43.2 0.15 42.35-0.05L42.35-0.05 40.35 10.1 34.7 11.1ZM43.1-3.95Q43.85-3.7 44.62-3.58 45.4-3.45 46.05-3.45L46.05-3.45Q48.3-3.45 49.85-4.73 51.4-6 52.37-7.98 53.35-9.95 53.8-12.33 54.25-14.7 54.25-16.85L54.25-16.85Q54.25-19.05 53.62-19.93 53-20.8 51.7-20.8L51.7-20.8Q50.4-20.8 49.25-19.65 48.1-18.5 47.05-16.4 46-14.3 45.07-11.4 44.15-8.5 43.35-5.05L43.35-5.05 43.1-3.95ZM61.44 11.1L66.04-12.6Q66.34-14.05 66.47-15.3 66.59-16.55 66.59-17.55L66.59-17.55Q66.59-20.3 66.09-21.55 65.59-22.8 65.34-23.2L65.34-23.2 69.89-25Q70.44-24.3 70.82-23.3 71.19-22.3 71.19-20.75L71.19-20.75Q71.19-20.35 71.14-19.8 71.09-19.25 71.04-18.65 70.99-18.05 70.92-17.48 70.84-16.9 70.79-16.55L70.79-16.55 71.44-18Q72.29-20 73.29-21.33 74.29-22.65 75.42-23.45 76.54-24.25 77.77-24.58 78.99-24.9 80.29-24.9L80.29-24.9Q82.09-24.9 83.34-24.2 84.59-23.5 85.39-22.33 86.19-21.15 86.57-19.68 86.94-18.2 86.94-16.65L86.94-16.65Q86.94-13.1 86.02-10 85.09-6.9 83.29-4.58 81.49-2.25 78.87-0.93 76.24 0.4 72.89 0.4L72.89 0.4Q71.89 0.4 70.92 0.28 69.94 0.15 69.09-0.05L69.09-0.05 67.09 10.1 61.44 11.1ZM69.84-3.95Q70.59-3.7 71.37-3.58 72.14-3.45 72.79-3.45L72.79-3.45Q75.04-3.45 76.59-4.73 78.14-6 79.12-7.98 80.09-9.95 80.54-12.33 80.99-14.7 80.99-16.85L80.99-16.85Q80.99-19.05 80.37-19.93 79.74-20.8 78.44-20.8L78.44-20.8Q77.14-20.8 75.99-19.65 74.84-18.5 73.79-16.4 72.74-14.3 71.82-11.4 70.89-8.5 70.09-5.05L70.09-5.05 69.84-3.95Z" opacity="1" transform="matrix(1,0,0,1,0,0)" fill="#506837" class="undefined-text-1" data-fill-palette-color="secondary" id="text-1"></path></svg></g></svg></g></svg></g></svg></g><g transform="matrix(1,0,0,1,0,29.628492340539438)"><svg viewBox="0 0 183.32352 130.618008" height="130.618008" width="183.32352"><g><svg xmlns="http://www.w3.org/2000/svg" xmlns:xlink="http://www.w3.org/1999/xlink" version="1.1" x="0" y="0" viewBox="0 19 100 71.25" enable-background="new 0 0 100 100" xml:space="preserve" height="130.618008" width="183.32352" class="icon-icon-0" data-fill-palette-color="accent" id="icon-0"><path d="M50 19C25.762 19 0 25.693 0 38.097v33.056c0 3.305 1.848 6.359 5.488 9.067l0.836 0.63 24.592-3.993v12.136l4.912 0.521C40.416 90.009 45.18 90.25 50 90.25c24.238 0 50-6.692 50-19.099V38.097C100 25.693 74.238 19 50 19zM81.074 65.397c-0.044 0.011-0.087 0.019-0.129 0.031-2.326 0.716-5.228 0.13-8.141 0.708-1.137 0.226-2.194 1.343-3.285 2.515-2.616 0.394-5.43 0.714-8.423 0.948-1.422-1.028-2.876-2.04-4.257-1.964-1.18 0.065-2.368 1.171-3.582 2.351-1.09 0.023-2.192 0.04-3.322 0.04-2.791 0-10.676-0.311-14.019-0.501V56.472c4.563 0.481 9.299 0.732 14.083 0.732 8.749 0 17.691-0.883 25.557-2.58 8.103-1.752 15.049-4.381 19.442-7.838v10.487c-0.113 0.088-0.272 0.194-0.533 0.322 0 0.299-2.568 0.663-4.072 1.748-1.737 1.255-3.042 2.01-5.763 3.105C83.522 62.896 81.375 65.048 81.074 65.397zM33.424 53.101l-2.508 2.842v2.953c-0.206 0.089-0.4 0.196-0.585 0.319L9.455 62.605l0-15.319 33.934-5.51L33.424 53.101zM25.038 63.113c-0.06 0.012-0.113 0.031-0.175 0.041-0.105 0.018-0.198 0.023-0.299 0.036L25.038 63.113zM5.001 38.097c0-5.823 17.121-13.949 44.999-13.949 27.884 0 44.999 8.125 45 13.949 0 5.832-17.115 13.953-44.999 13.953-2.916 0-5.813-0.096-8.655-0.276l15.268-17.354L7.62 42.369C6.288 41.235 5.001 39.723 5.001 38.097zM9.454 75.121v-7.3c3.205 0.396 3.572-1.107 7.294-1.712 4.024-0.653 3.777-2.176 7.801-2.829 3.36-0.546 4.146 0.846 6.367 0.138v8.224L9.454 75.121zM50 85.101c-2.916 0-11.236-0.35-14.083-0.535v-1.254-7.269V72.68c1.435 0.496 4.28 1.788 5.433 1.832 2.921 0.11 5.934 1.006 7.461 1.006 2.618 0 5.216-2.17 7.671-2.295 0.515-0.026 1.015-0.181 1.504-0.411 17.914-0.968 31.215-5.1 37.014-9.898v8.238C94.999 76.974 77.884 85.101 50 85.101z" fill="#6b8253" data-fill-palette-color="accent"></path></svg></g></svg></g></svg></g><defs></defs></svg><rect width="395.52" height="123.81474938284649" fill="none" stroke="none" visibility="hidden"></rect></g></svg></g></svg>